<?xml version="1.0" encoding="UTF-8" standalone="no"?><svg width="53" height="52" viewBox="0 0 53 52" fill="none" xmlns="http://www.w3.org/2000/svg">
<path d="M48.0517 51V25.1379H46.3276H51.5L26.5 1L1.5 25.1379H6.67241H4.94828V51" stroke="#1E2F97" stroke-width="2" stroke-miterlimit="10" stroke-linecap="round" stroke-linejoin="round"/>
<path d="M30.8105 16.5173V16.3448" stroke="#1E2F97" stroke-width="2" stroke-miterlimit="10" stroke-linecap="round" stroke-linejoin="round"/>
<path d="M26.5 16.5173V16.3448" stroke="#1E2F97" stroke-width="2" stroke-miterlimit="10" stroke-linecap="round" stroke-linejoin="round"/>
<path d="M22.1895 16.5173V16.3448" stroke="#1E2F97" stroke-width="2" stroke-miterlimit="10" stroke-linecap="round" stroke-linejoin="round"/>
<path d="M35.9824 6.1724V2.72412H41.1548V11.3448" stroke="#1AA7EC" stroke-width="2" stroke-miterlimit="10" stroke-linecap="round" stroke-linejoin="round"/>
<path d="M36.8457 51.0001V45.8276" stroke="#1E2F97" stroke-width="2" stroke-miterlimit="10" stroke-linecap="round" stroke-linejoin="round"/>
<path d="M41.1549 51V35.4827V42.3793C41.1549 43.3275 41.9308 44.1034 42.879 44.1034C43.8273 44.1034 44.6032 43.3275 44.6032 42.3793V35.4827C44.6032 33.1017 42.6739 30.3103 40.2928 30.3103H33.3963C31.0152 30.3103 29.0859 33.1017 29.0859 35.4827V42.3793C29.0859 43.3275 29.8618 44.1034 30.8101 44.1034C31.7584 44.1034 32.5342 43.3275 32.5342 42.3793V35.4827V51" stroke="#1E2F97" stroke-width="2" stroke-miterlimit="10" stroke-linecap="round" stroke-linejoin="round"/>
<path d="M40.293 23.4139C40.293 25.3104 38.7413 26.8621 36.8448 26.8621C34.9482 26.8621 33.3965 25.3104 33.3965 23.4139C33.3965 21.5173 34.9482 19.9656 36.8448 19.9656C38.7413 19.9656 40.293 21.5173 40.293 23.4139Z" stroke="#1AA7EC" stroke-width="2" stroke-miterlimit="10" stroke-linecap="round" stroke-linejoin="round"/>
<path d="M16.1543 51.0001V45.8276" stroke="#1E2F97" stroke-width="2" stroke-miterlimit="10" stroke-linecap="round" stroke-linejoin="round"/>
<path d="M20.4654 51V35.4827V42.3793C20.4654 43.3275 21.2413 44.1034 22.1896 44.1034C23.1379 44.1034 23.9137 43.3275 23.9137 42.3793V35.4827C23.9137 33.1017 21.9844 30.3103 19.6034 30.3103H12.7068C10.3258 30.3103 8.39648 33.1017 8.39648 35.4827V42.3793C8.39648 43.3275 9.17235 44.1034 10.1206 44.1034C11.0689 44.1034 11.8448 43.3275 11.8448 42.3793V35.4827V51" stroke="#1E2F97" stroke-width="2" stroke-miterlimit="10" stroke-linecap="round" stroke-linejoin="round"/>
<path d="M19.6036 23.4139C19.6036 25.3104 18.0519 26.8621 16.1553 26.8621C14.2588 26.8621 12.707 25.3104 12.707 23.4139C12.707 21.5173 14.2588 19.9656 16.1553 19.9656C18.0519 19.9656 19.6036 21.5173 19.6036 23.4139Z" stroke="#1AA7EC" stroke-width="2" stroke-miterlimit="10" stroke-linecap="round" stroke-linejoin="round"/>
</svg>
