<?xml version="1.0" encoding="UTF-8" standalone="no"?><svg width="55" height="58" viewBox="0 0 55 58" fill="none" xmlns="http://www.w3.org/2000/svg">
<path d="M36.1276 56.6001H53.3828H47.6311V27.8414H43.7966H53.3828L27.5 1L1.61719 27.8414H11.2034H7.36892V33.5932" stroke="#1E2F97" stroke-width="2" stroke-miterlimit="10" stroke-linecap="round" stroke-linejoin="round"/>
<path d="M30.356 17.2965C30.356 18.8687 29.0714 20.1532 27.4993 20.1532C25.9271 20.1532 24.6426 18.8687 24.6426 17.2965C24.6426 15.7244 25.9271 14.4398 27.4993 14.4398C29.0714 14.4398 30.356 15.7244 30.356 17.2965Z" stroke="#1E2F97" stroke-width="2" stroke-miterlimit="10" stroke-linecap="round" stroke-linejoin="round"/>
<path d="M25.5825 43.1775C29.2874 43.1775 32.2909 40.174 32.2909 36.4691C32.2909 32.7641 29.2874 29.7606 25.5825 29.7606C21.8775 29.7606 18.874 32.7641 18.874 36.4691C18.874 40.174 21.8775 43.1775 25.5825 43.1775Z" stroke="#1E2F97" stroke-width="2" stroke-miterlimit="10" stroke-linecap="round" stroke-linejoin="round"/>
<path d="M8.32758 50.8465C12.0326 50.8465 15.036 47.843 15.036 44.138C15.036 40.433 12.0326 37.4296 8.32758 37.4296C4.62261 37.4296 1.61914 40.433 1.61914 44.138C1.61914 47.843 4.62261 50.8465 8.32758 50.8465Z" stroke="#1E2F97" stroke-width="2" stroke-miterlimit="10" stroke-linecap="round" stroke-linejoin="round"/>
<path d="M18.8721 52.7656V56.6001H32.2928V52.7656H18.8721Z" stroke="#1E2F97" stroke-width="2" stroke-miterlimit="10" stroke-linecap="round" stroke-linejoin="round"/>
<path d="M30.3758 48.9312H16.9551V52.7656H30.3758V48.9312Z" stroke="#1E2F97" stroke-width="2" stroke-miterlimit="10" stroke-linecap="round" stroke-linejoin="round"/>
<path d="M18.8721 48.9312H32.2928V45.0967H18.8721" stroke="#1E2F97" stroke-width="2" stroke-miterlimit="10" stroke-linecap="round" stroke-linejoin="round"/>
<path d="M1.61719 56.6001H15.0379V52.7656H1.61719" stroke="#1E2F97" stroke-width="2" stroke-miterlimit="10" stroke-linecap="round" stroke-linejoin="round"/>
<path d="M36.1279 4.83449V1H41.8797V10.5862" stroke="#1E2F97" stroke-width="2" stroke-miterlimit="10" stroke-linecap="round" stroke-linejoin="round"/>
</svg>
