<?xml version="1.0" encoding="UTF-8" standalone="no"?><svg width="51" height="50" viewBox="0 0 51 50" fill="none" xmlns="http://www.w3.org/2000/svg">
<g clip-path="url(#clip0_40_3199)">
<path d="M25.5 31.25C27.19 31.25 28.8421 30.7489 30.2473 29.8099C31.6525 28.871 32.7477 27.5365 33.3945 25.9751C34.0412 24.4137 34.2104 22.6956 33.8807 21.038C33.551 19.3805 32.7372 17.8579 31.5422 16.6629C30.3471 15.4679 28.8246 14.6541 27.167 14.3243C25.5095 13.9946 23.7914 14.1639 22.23 14.8106C20.6686 15.4573 19.3341 16.5526 18.3952 17.9578C17.4562 19.363 16.9551 21.0151 16.9551 22.7051C16.9577 24.9705 17.8588 27.1425 19.4607 28.7444C21.0626 30.3463 23.2345 31.2474 25.5 31.25ZM18.458 23.4375H24.7676V29.7471C23.1524 29.5767 21.6447 28.8572 20.4963 27.7088C19.3479 26.5604 18.6284 25.0526 18.458 23.4375ZM26.2324 29.7471V23.4375H32.542C32.3716 25.0526 31.6521 26.5604 30.5037 27.7088C29.3553 28.8572 27.8476 29.5767 26.2324 29.7471ZM32.542 21.9727H26.2324V15.6631C27.8476 15.8335 29.3553 16.553 30.5037 17.7014C31.6521 18.8498 32.3716 20.3575 32.542 21.9727ZM24.7676 15.6631V21.9727H18.458C18.6284 20.3575 19.3479 18.8498 20.4963 17.7014C21.6447 16.553 23.1524 15.8335 24.7676 15.6631Z" fill="#1AA7EC"/>
<path d="M27.4531 42.6758C27.6474 42.6758 27.8337 42.5986 27.971 42.4613C28.1084 42.3239 28.1855 42.1376 28.1855 41.9434V40.9668C28.1855 40.7725 28.1084 40.5863 27.971 40.4489C27.8337 40.3115 27.6474 40.2344 27.4531 40.2344C27.2589 40.2344 27.0726 40.3115 26.9352 40.4489C26.7979 40.5863 26.7207 40.7725 26.7207 40.9668V41.9434C26.7207 42.1376 26.7979 42.3239 26.9352 42.4613C27.0726 42.5986 27.2589 42.6758 27.4531 42.6758Z" fill="#1AA7EC"/>
<path d="M49.7676 45.6055H49.1328C48.8398 43.4785 47.3184 41.7236 45.2773 41.0361V19.2002L47.6211 20.4248C47.7328 20.4838 47.8579 20.5128 47.9842 20.5091C48.1105 20.5055 48.2337 20.4692 48.3418 20.4038C48.4499 20.3384 48.5393 20.2462 48.6012 20.1361C48.6632 20.026 48.6956 19.9017 48.6953 19.7754V15.8691C48.6956 15.7356 48.6594 15.6044 48.5905 15.49C48.5217 15.3755 48.4228 15.2821 48.3047 15.2197L43.8125 12.876V5.37109H44.543C44.7372 5.37109 44.9235 5.29393 45.0609 5.15657C45.1982 5.01922 45.2754 4.83292 45.2754 4.63867V0.732422C45.2754 0.538172 45.1982 0.351877 45.0609 0.214521C44.9235 0.0771657 44.7372 0 44.543 0L34.7773 0C34.5831 0 34.3968 0.0771657 34.2594 0.214521C34.1221 0.351877 34.0449 0.538172 34.0449 0.732422V4.63867C34.0449 4.83292 34.1221 5.01922 34.2594 5.15657C34.3968 5.29393 34.5831 5.37109 34.7773 5.37109H35.5098V8.54688L25.8418 3.50098C25.7371 3.44662 25.6209 3.41824 25.5029 3.41824C25.385 3.41824 25.2687 3.44662 25.1641 3.50098L2.70312 15.2197C2.58499 15.2821 2.48614 15.3755 2.41729 15.49C2.34844 15.6044 2.3122 15.7356 2.3125 15.8691V19.7754C2.31222 19.9017 2.34462 20.026 2.40656 20.1361C2.46851 20.2462 2.55788 20.3384 2.666 20.4038C2.77412 20.4692 2.89731 20.5055 3.0236 20.5091C3.14989 20.5128 3.27498 20.4838 3.38672 20.4248L5.73047 19.2002V41.0361C3.68359 41.7236 2.16016 43.4785 1.86719 45.6055H1.23242C1.03817 45.6055 0.851877 45.6826 0.714521 45.82C0.577166 45.9573 0.5 46.1436 0.5 46.3379L0.5 49.2676C0.5 49.4618 0.577166 49.6481 0.714521 49.7855C0.851877 49.9228 1.03817 50 1.23242 50H49.7676C49.9618 50 50.1481 49.9228 50.2855 49.7855C50.4228 49.6481 50.5 49.4618 50.5 49.2676V46.3379C50.5 46.1436 50.4228 45.9573 50.2855 45.82C50.1481 45.6826 49.9618 45.6055 49.7676 45.6055ZM47.6475 45.6055H35.6201C35.9551 44.5137 37.0176 43.7139 38.2744 43.7139C38.6016 43.7133 38.9265 43.7681 39.2354 43.876C39.373 43.9243 39.522 43.9305 39.6632 43.8938C39.8045 43.8571 39.9316 43.7792 40.0283 43.6699C40.4471 43.2005 40.961 42.8256 41.5358 42.57C42.1106 42.3144 42.7332 42.184 43.3623 42.1875C45.501 42.1875 47.2832 43.665 47.6475 45.6055ZM35.5098 1.46484H43.8105V3.90625H35.5098V1.46484ZM36.9746 5.37109H42.3457V12.1094L36.9746 9.30664V5.37109ZM3.77148 16.3135L25.5 4.98047L47.2285 16.3135V18.5674L25.8418 7.40723C25.7372 7.35271 25.6209 7.32424 25.5029 7.32424C25.3849 7.32424 25.2687 7.35271 25.1641 7.40723L3.77148 18.5674V16.3135ZM7.18945 18.4365L25.5 8.88672L43.8105 18.4404V40.7451C43.6621 40.7344 43.5127 40.7266 43.3623 40.7266C41.8352 40.7228 40.3657 41.3092 39.2607 42.3633C38.9385 42.2897 38.6089 42.2526 38.2783 42.2529C36.2051 42.2529 34.4766 43.7031 34.1182 45.6094H30.627V35.5957C30.627 35.4015 30.5498 35.2152 30.4124 35.0778C30.2751 34.9404 30.0888 34.8633 29.8945 34.8633H21.1055C20.9112 34.8633 20.7249 34.9404 20.5876 35.0778C20.4502 35.2152 20.373 35.4015 20.373 35.5957V45.6055H16.8857C16.5273 43.6992 14.7988 42.249 12.7256 42.249C12.395 42.2487 12.0654 42.2858 11.7432 42.3594C10.6382 41.3053 9.1687 40.7189 7.6416 40.7227C7.49121 40.7227 7.3418 40.7305 7.19336 40.7412L7.18945 18.4365ZM29.1621 45.6055H21.8379V36.3281H29.1621V45.6055ZM7.63769 42.1875C8.26676 42.184 8.88936 42.3144 9.46418 42.57C10.039 42.8256 10.5529 43.2005 10.9717 43.6699C11.0683 43.7793 11.1954 43.8573 11.3367 43.894C11.478 43.9307 11.627 43.9244 11.7646 43.876C12.0735 43.7681 12.3984 43.7133 12.7256 43.7139C13.9824 43.7139 15.0449 44.5137 15.3799 45.6055H3.35254C3.7168 43.665 5.49902 42.1875 7.63769 42.1875ZM49.0352 48.5352H1.96484V47.0703H49.0352V48.5352Z" fill="#1E2F97"/>
</g>
<defs>
<clipPath id="clip0_40_3199">
<rect width="50" height="50" fill="white" transform="translate(0.5)"/>
</clipPath>
</defs>
</svg>
