<?xml version="1.0" encoding="UTF-8" standalone="no"?><svg width="53" height="52" viewBox="0 0 53 52" fill="none" xmlns="http://www.w3.org/2000/svg">
<path d="M36.2295 5.04639C42.7353 6.74296 47.4993 12.2228 47.4993 18.5458L47.3513 21.2056L51.6606 30.1622C51.9393 30.7405 51.5178 31.4111 50.8768 31.4111H46.5413V38.3786C46.5413 39.3401 45.7609 40.1204 44.7994 40.1204H38.6315L38.0933 47.1471" stroke="#1E2F97" stroke-width="2" stroke-miterlimit="10" stroke-linecap="round" stroke-linejoin="round"/>
<path d="M5.90463 23.6441C5.38033 21.9405 4.99189 20.0907 4.8508 18.1346C4.19064 9.00375 11.0083 1.12533 20.1617 1.00166C29.3309 0.877985 36.8069 7.69387 36.8069 15.8353L36.6502 18.6467L41.2539 28.4272C41.5256 29.0055 41.1041 29.6692 40.4666 29.6692H36.091V36.6366C36.091 37.5981 35.3107 38.3784 34.3492 38.3784H27.4375" stroke="#1E2F97" stroke-width="2" stroke-miterlimit="10" stroke-linecap="round" stroke-linejoin="round"/>
<path d="M20.4131 26.1855V20.96H23.8968V26.1855" stroke="#1E2F97" stroke-width="2" stroke-miterlimit="10" stroke-linecap="round" stroke-linejoin="round"/>
<path d="M1.25293 50.5715H34.3482H23.8971V34.8947H10.8331H27.3808L14.3169 19.218L1.25293 34.8947H6.4785H4.73665V50.5715H8.22036" stroke="#1E2F97" stroke-width="2" stroke-miterlimit="10" stroke-linecap="round" stroke-linejoin="round"/>
<path d="M11.7041 50.5715V41.8622H16.9297V50.5715" stroke="#1AA7EC" stroke-width="2" stroke-miterlimit="10" stroke-linecap="round" stroke-linejoin="round"/>
<path d="M14.3164 27.9274V27.7532" stroke="#1AA7EC" stroke-width="2" stroke-miterlimit="10" stroke-linecap="round" stroke-linejoin="round"/>
<path d="M41.3154 50.5715H41.4896" stroke="#1E2F97" stroke-width="2" stroke-miterlimit="10" stroke-linecap="round" stroke-linejoin="round"/>
<path d="M37.832 50.5715H38.0062" stroke="#1E2F97" stroke-width="2" stroke-miterlimit="10" stroke-linecap="round" stroke-linejoin="round"/>
</svg>
