<?xml version="1.0" encoding="UTF-8" standalone="no"?><svg width="53" height="52" viewBox="0 0 53 52" fill="none" xmlns="http://www.w3.org/2000/svg">
<path d="M32.5586 7.40489V2.73108H36.0207V7.05869" stroke="#1E2F97" stroke-width="2" stroke-miterlimit="10" stroke-linecap="round" stroke-linejoin="round"/>
<path d="M39.4824 25.2346V18.3104H19.5754H42.9445L26.4996 1L10.0547 18.3104H13.5168V25.2346" stroke="#1E2F97" stroke-width="2" stroke-miterlimit="10" stroke-linecap="round" stroke-linejoin="round"/>
<path d="M39.4832 23.5035C39.4832 23.5035 39.4832 25.2103 39.4832 26.1001C39.4832 33.2649 33.6652 39.0829 26.5004 39.0829C19.3356 39.0829 13.5176 33.2649 13.5176 26.1001C13.5176 25.2103 13.5176 23.5035 13.5176 23.5035" stroke="#1E2F97" stroke-width="2" stroke-miterlimit="10" stroke-linecap="round" stroke-linejoin="round"/>
<path d="M10.0556 23.5035H1.40039V28.6967L6.02574 29.467C6.36848 31.5737 7.02455 33.5713 7.95239 35.4148L4.6686 38.754L7.72216 42.9553L11.8992 40.8694C13.3844 42.339 15.0981 43.575 16.9711 44.5444L16.277 49.1714L21.2174 50.7761L23.3794 46.6147C24.3973 46.767 25.4359 46.8726 26.5005 46.8726C27.5651 46.8726 28.6037 46.767 29.625 46.613L31.7871 50.7744L36.7275 49.1697L36.0334 44.5426C37.9063 43.5715 39.6183 42.3373 41.1053 40.8676L45.2823 42.9535L48.3359 38.7523L45.0521 35.4131C45.9799 33.5713 46.636 31.5719 46.9787 29.4653L51.6006 28.6967V23.5035H42.9454" stroke="#1E2F97" stroke-width="2" stroke-miterlimit="10" stroke-linecap="round" stroke-linejoin="round"/>
<path d="M6.42188 20.0415H6.59498" stroke="#1E2F97" stroke-width="2" stroke-miterlimit="10" stroke-linecap="round" stroke-linejoin="round"/>
<path d="M46.4082 20.0415H46.5813" stroke="#1E2F97" stroke-width="2" stroke-miterlimit="10" stroke-linecap="round" stroke-linejoin="round"/>
<path d="M30.829 23.5035H22.1738V32.1588H30.829V23.5035Z" stroke="#1E2F97" stroke-width="2" stroke-miterlimit="10" stroke-linecap="round" stroke-linejoin="round"/>
<path d="M26.5006 13.1174C27.4566 13.1174 28.2316 12.3423 28.2316 11.3863C28.2316 10.4303 27.4566 9.65527 26.5006 9.65527C25.5445 9.65527 24.7695 10.4303 24.7695 11.3863C24.7695 12.3423 25.5445 13.1174 26.5006 13.1174Z" stroke="#1E2F97" stroke-width="2" stroke-miterlimit="10" stroke-linecap="round" stroke-linejoin="round"/>
</svg>
