<?xml version="1.0" encoding="UTF-8" standalone="no"?><svg width="50" height="50" viewBox="0 0 50 50" fill="none" xmlns="http://www.w3.org/2000/svg">
<g clip-path="url(#clip0_34_2388)">
<path d="M38.501 34.5215H30.5342C30.0139 34.5297 29.4971 34.4343 29.0141 34.2409C28.531 34.0474 28.0912 33.7598 27.7204 33.3948C27.3495 33.0298 27.055 32.5946 26.854 32.1146C26.653 31.6347 26.5494 31.1195 26.5494 30.5991C26.5494 30.0788 26.653 29.5636 26.854 29.0836C27.055 28.6037 27.3495 28.1685 27.7204 27.8035C28.0912 27.4384 28.531 27.1508 29.0141 26.9574C29.4971 26.7639 30.0139 26.6685 30.5342 26.6768H36.1738C36.9916 26.6757 37.7756 26.3503 38.3537 25.772C38.9319 25.1936 39.257 24.4096 39.2578 23.5918V22.4287C39.2578 22.2345 39.1806 22.0482 39.0433 21.9108C38.9059 21.7735 38.7196 21.6963 38.5254 21.6963C38.3311 21.6963 38.1448 21.7735 38.0075 21.9108C37.8701 22.0482 37.793 22.2345 37.793 22.4287V23.5918C37.7927 24.0212 37.6221 24.433 37.3185 24.7368C37.0149 25.0405 36.6033 25.2114 36.1738 25.2119H30.5342C29.8206 25.2023 29.1123 25.3346 28.4502 25.601C27.7882 25.8674 27.1857 26.2627 26.6777 26.7639C26.1697 27.2651 25.7663 27.8622 25.491 28.5206C25.2157 29.179 25.074 29.8855 25.074 30.5991C25.074 31.3127 25.2157 32.0193 25.491 32.6776C25.7663 33.336 26.1697 33.9332 26.6777 34.4344C27.1857 34.9356 27.7882 35.3308 28.4502 35.5973C29.1123 35.8637 29.8206 35.9959 30.5342 35.9863H38.501C40.1651 35.9863 41.761 36.6474 42.9377 37.8241C44.1143 39.0007 44.7754 40.5967 44.7754 42.2607C44.7754 43.9248 44.1143 45.5207 42.9377 46.6974C41.761 47.8741 40.1651 48.5352 38.501 48.5352H8.4707C8.27645 48.5352 8.09016 48.6123 7.9528 48.7497C7.81545 48.887 7.73828 49.0733 7.73828 49.2676C7.73828 49.4618 7.81545 49.6481 7.9528 49.7855C8.09016 49.9228 8.27645 50 8.4707 50H38.501C40.5536 50 42.5221 49.1846 43.9735 47.7332C45.4249 46.2818 46.2402 44.3133 46.2402 42.2607C46.2402 40.2082 45.4249 38.2397 43.9735 36.7883C42.5221 35.3369 40.5536 34.5215 38.501 34.5215Z" fill="#1E2F97"/>
<path d="M48.9258 10.4843C49.0373 10.5442 49.1625 10.5742 49.2891 10.5713C49.4157 10.5685 49.5393 10.5328 49.648 10.4679C49.7567 10.403 49.8468 10.311 49.9093 10.2009C49.9718 10.0908 50.0048 9.96636 50.0049 9.83974V6.51357C50.0048 6.38132 49.9688 6.25157 49.9009 6.13809C49.833 6.02461 49.7356 5.93164 49.6191 5.86904L38.8721 0.0877872C38.7656 0.030094 38.6465 -0.00012207 38.5254 -0.00012207C38.4043 -0.00012207 38.2852 0.030094 38.1787 0.0877872L27.4414 5.86904C27.324 5.93098 27.2256 6.02368 27.1568 6.1372C27.088 6.25073 27.0514 6.38082 27.0508 6.51357V9.83974C27.0509 9.96636 27.0838 10.0908 27.1464 10.2009C27.2089 10.311 27.2989 10.403 27.4076 10.4679C27.5163 10.5328 27.64 10.5685 27.7666 10.5713C27.8932 10.5742 28.0183 10.5442 28.1299 10.4843L29.0039 10.0136V19.5311H27.7832C27.589 19.5311 27.4027 19.6083 27.2653 19.7457C27.1279 19.883 27.0508 20.0693 27.0508 20.2636C27.0508 20.4578 27.1279 20.6441 27.2653 20.7815C27.4027 20.9188 27.589 20.996 27.7832 20.996H49.2676C49.4618 20.996 49.6481 20.9188 49.7855 20.7815C49.9228 20.6441 50 20.4578 50 20.2636C50 20.0693 49.9228 19.883 49.7855 19.7457C49.6481 19.6083 49.4618 19.5311 49.2676 19.5311H48.0469V10.0136L48.9258 10.4843ZM28.5156 6.95107L38.5254 1.5624L48.5352 6.95107V8.61123L38.8721 3.41787C38.7656 3.36017 38.6465 3.32996 38.5254 3.32996C38.4043 3.32996 38.2852 3.36017 38.1787 3.41787L28.5156 8.61318V6.95107ZM40.8145 19.5311H36.2363V15.7226C36.2363 15.1155 36.4775 14.5332 36.9068 14.1039C37.3361 13.6747 37.9183 13.4335 38.5254 13.4335C39.1325 13.4335 39.7147 13.6747 40.144 14.1039C40.5733 14.5332 40.8145 15.1155 40.8145 15.7226V19.5311ZM46.582 19.5311H42.2793V15.7226C42.2793 14.727 41.8838 13.7721 41.1798 13.0681C40.4758 12.3641 39.521 11.9686 38.5254 11.9686C37.5298 11.9686 36.575 12.3641 35.871 13.0681C35.167 13.7721 34.7715 14.727 34.7715 15.7226V19.5311H30.4688V9.22548L38.5254 4.88954L46.582 9.22548V19.5311Z" fill="#1E2F97"/>
<path d="M11.3955 47.0703C11.5039 47.0701 11.6109 47.0459 11.7088 46.9995C11.8067 46.9531 11.8932 46.8855 11.9619 46.8017L16.1611 41.6758C18.5554 40.6035 20.51 38.7432 21.6992 36.4048C22.8884 34.0663 23.2404 31.391 22.6965 28.8246C22.1527 26.2582 20.7458 23.9556 18.7104 22.3005C16.6749 20.6454 14.1337 19.7378 11.5103 19.7288C8.88691 19.7199 6.33964 20.6102 4.29294 22.2513C2.24624 23.8925 0.823703 26.1854 0.262356 28.7481C-0.298991 31.3108 0.0347477 33.9884 1.20797 36.3349C2.38119 38.6814 4.32303 40.555 6.70997 41.6435L10.8252 46.7949C10.8935 46.8807 10.9802 46.95 11.079 46.9976C11.1777 47.0453 11.2859 47.0701 11.3955 47.0703ZM7.46778 40.376C5.35839 39.4542 3.63121 37.8335 2.57727 35.787C1.52333 33.7404 1.20706 31.3931 1.68176 29.1406C2.15646 26.8881 3.39311 24.8681 5.18332 23.4209C6.97354 21.9738 9.20788 21.1879 11.5099 21.1958C13.8118 21.2038 16.0407 22.0049 17.8209 23.4644C19.6011 24.9238 20.8239 26.9523 21.2831 29.208C21.7423 31.4637 21.4099 33.8088 20.3419 35.8481C19.2739 37.8873 17.5356 39.4961 15.4199 40.4033C15.3121 40.4493 15.2169 40.5206 15.1426 40.6113L11.4072 45.1728L7.7461 40.5898C7.67187 40.4972 7.5764 40.4238 7.46778 40.376Z" fill="#1E2F97"/>
<path d="M18.0664 31.2012C18.0664 29.8974 17.6798 28.623 16.9555 27.539C16.2312 26.455 15.2017 25.6101 13.9972 25.1111C12.7927 24.6122 11.4673 24.4817 10.1886 24.736C8.90993 24.9904 7.73539 25.6182 6.81351 26.5401C5.89163 27.462 5.26382 28.6365 5.00948 29.9152C4.75513 31.1939 4.88567 32.5193 5.38459 33.7237C5.8835 34.9282 6.72839 35.9577 7.81241 36.6821C8.89642 37.4064 10.1709 37.793 11.4746 37.793C13.2222 37.7909 14.8977 37.0957 16.1334 35.86C17.3692 34.6242 18.0643 32.9488 18.0664 31.2012ZM6.34766 31.2012C6.34766 30.1872 6.64835 29.1959 7.21171 28.3528C7.77506 27.5097 8.57578 26.8525 9.51261 26.4645C10.4494 26.0764 11.4803 25.9749 12.4748 26.1727C13.4694 26.3706 14.3829 26.8589 15.0999 27.5759C15.8169 28.2929 16.3052 29.2064 16.5031 30.201C16.7009 31.1955 16.5993 32.2263 16.2113 33.1632C15.8233 34.1 15.1661 34.9007 14.323 35.4641C13.4799 36.0274 12.4886 36.3281 11.4746 36.3281C10.1153 36.3266 8.81218 35.7859 7.85102 34.8248C6.88987 33.8636 6.34921 32.5605 6.34766 31.2012Z" fill="#1AA7EC"/>
</g>
<defs>
<clipPath id="clip0_34_2388">
<rect width="50" height="50" fill="white"/>
</clipPath>
</defs>
</svg>
