<?xml version="1.0" encoding="UTF-8" standalone="no"?><svg width="50" height="41" viewBox="0 0 50 41" fill="none" xmlns="http://www.w3.org/2000/svg">
<rect width="50" height="41" fill="white"/>
<path d="M42.9922 20.86C42.9909 20.842 42.9871 20.8239 42.9832 20.8046C42.9806 20.7776 42.9767 20.7505 42.9715 20.7235C42.9677 20.7016 42.9612 20.6797 42.956 20.6578C42.9496 20.636 42.9457 20.6128 42.9379 20.5896C42.9315 20.5677 42.9237 20.5471 42.9159 20.5252C42.9069 20.5033 42.9004 20.4814 42.8914 20.4583C42.8836 20.439 42.8733 20.4196 42.8642 20.399C42.8539 20.3772 42.8435 20.354 42.8319 20.3321C42.8215 20.3141 42.8099 20.296 42.7995 20.278C42.7866 20.2561 42.775 20.2342 42.7607 20.2136C42.7478 20.1943 42.7323 20.175 42.7181 20.1557C42.7038 20.1377 42.6922 20.1197 42.678 20.1016C42.6495 20.0682 42.6211 20.036 42.59 20.0051C42.5874 20.0025 42.5861 20.0012 42.5823 19.9986L28.9211 6.41523C28.365 5.86159 27.4649 5.86159 26.9088 6.41523L17.6694 15.603L15.26 13.2069C14.7039 12.6546 13.8038 12.6546 13.2476 13.2069L6.41774 19.9986C6.38411 20.0321 6.35307 20.0669 6.32203 20.1029C6.3091 20.1197 6.29746 20.1364 6.28582 20.1531C6.2703 20.1737 6.25478 20.193 6.24055 20.2136C6.22633 20.2342 6.21469 20.2561 6.20175 20.2754C6.19012 20.2948 6.17848 20.3128 6.16813 20.3321C6.15778 20.354 6.14744 20.3759 6.13709 20.3978C6.12804 20.4171 6.11769 20.4377 6.10864 20.4583C6.09958 20.4789 6.09312 20.5008 6.08406 20.5226C6.0763 20.5445 6.06855 20.5664 6.06208 20.5883C6.05432 20.6102 6.05044 20.6334 6.04397 20.6553C6.0388 20.6784 6.03233 20.7003 6.02716 20.7235C6.02199 20.7493 6.0194 20.775 6.01552 20.8008C6.01293 20.8201 6.00905 20.8394 6.00647 20.86C6.00259 20.9076 6 20.954 6 21.0003V34.585C6 35.3665 6.6376 36 7.42392 36H41.5761C42.3624 36 43 35.3665 43 34.585V21.0016C42.9987 20.954 42.9961 20.9076 42.9922 20.86ZM8.84655 33.17V21.5861L14.2538 16.2094L15.6571 17.6038L13.2489 19.9986C13.2153 20.0321 13.1843 20.0669 13.1532 20.1029C13.1403 20.1197 13.1287 20.1364 13.117 20.1531C13.1015 20.1737 13.0847 20.193 13.0705 20.2136C13.0575 20.2342 13.0446 20.2561 13.033 20.2754C13.0213 20.2948 13.0097 20.3128 12.9993 20.3321C12.9877 20.354 12.9786 20.3759 12.9683 20.3978C12.9592 20.4171 12.9476 20.4377 12.9398 20.4583C12.9308 20.4789 12.9243 20.5008 12.9153 20.5226C12.9075 20.5445 12.8998 20.5664 12.8933 20.5883C12.8855 20.6102 12.8816 20.6334 12.8752 20.6553C12.87 20.6784 12.8635 20.7003 12.8584 20.7235C12.8532 20.7493 12.8506 20.775 12.8467 20.8008C12.8428 20.8201 12.8403 20.8394 12.8377 20.86C12.8338 20.9063 12.8312 20.9527 12.8312 21.0003V29.4903C12.8312 30.2718 13.4688 30.9053 14.2551 30.9053H34.7462C35.5312 30.9053 36.1701 30.2718 36.1701 29.4903V21.0016C36.1701 20.954 36.1675 20.9076 36.1623 20.86C36.161 20.842 36.1572 20.8239 36.1546 20.8046C36.1507 20.7776 36.1481 20.7505 36.1416 20.7235C36.1378 20.7016 36.1313 20.6797 36.1261 20.6578C36.1196 20.636 36.1158 20.6128 36.1093 20.5896C36.1015 20.5677 36.0938 20.5471 36.086 20.5252C36.0783 20.5033 36.0705 20.4814 36.0614 20.4583C36.0537 20.439 36.0433 20.4196 36.0343 20.399C36.0239 20.3772 36.0136 20.354 36.002 20.3321C35.9916 20.3141 35.9813 20.296 35.9696 20.278C35.9567 20.2561 35.9451 20.2342 35.9308 20.2136C35.9179 20.1943 35.9024 20.175 35.8881 20.1557C35.8739 20.1377 35.8623 20.1197 35.8481 20.1016C35.8209 20.0682 35.7911 20.036 35.7601 20.0051C35.7575 20.0025 35.7562 20.0012 35.7536 19.9986L28.9224 13.2056C28.3676 12.6533 27.4662 12.6533 26.9101 13.2056L21.085 18.9982L19.6831 17.6038L27.915 9.41645L40.1534 21.5861V33.17H8.84655ZM20.0776 22.0007C20.3556 22.2763 20.7203 22.4153 21.0837 22.4153C21.4032 22.4153 21.7213 22.3097 21.9826 22.0973C22.0188 22.0677 22.055 22.0355 22.0899 22.0007L27.915 16.2081L33.3222 21.5861V28.0753H15.6778V21.5861L17.6694 19.6046L20.0776 22.0007Z" fill="#245B86"/>
</svg>
