<?xml version="1.0" encoding="UTF-8" standalone="no"?><svg width="53" height="54" viewBox="0 0 53 54" fill="none" xmlns="http://www.w3.org/2000/svg">
<path d="M22.1584 1H6.52398C3.64551 1 1.3125 3.40163 1.3125 6.36476V8.15302" stroke="#1E2F97" stroke-width="2" stroke-miterlimit="10" stroke-linecap="round" stroke-linejoin="round"/>
<path d="M11.7349 50.177V6.36476C11.7349 3.39626 9.40713 1 6.52344 1H43.0038C45.8875 1 48.2153 3.39626 48.2153 6.36476V24.2473" stroke="#1E2F97" stroke-width="2" stroke-miterlimit="10" stroke-linecap="round" stroke-linejoin="round"/>
<path d="M48.2195 50.3558L45.6155 52.8594L43.0133 50.3558L40.4093 52.8594L37.8052 50.3558L35.1995 52.8594L32.6024 50.3558L30.0037 52.8594L27.3962 50.3558L24.7939 52.8594L22.1882 50.3558L19.579 52.8594L16.9732 50.3558L14.3623 52.8594L11.7461 50.3558" stroke="#1E2F97" stroke-width="2" stroke-miterlimit="10" stroke-linecap="round" stroke-linejoin="round"/>
<path d="M41.2667 47.4946C47.0232 47.4946 51.6897 42.6908 51.6897 36.765C51.6897 30.8393 47.0232 26.0355 41.2667 26.0355C35.5103 26.0355 30.8438 30.8393 30.8438 36.765C30.8438 42.6908 35.5103 47.4946 41.2667 47.4946Z" stroke="#1AA7EC" stroke-width="2" stroke-miterlimit="10" stroke-linecap="round" stroke-linejoin="round"/>
<path d="M38.7852 39.9571C38.9137 40.1306 39.8969 41.2357 41.2676 41.2357C42.6382 41.2357 43.75 40.1592 43.75 38.6803C43.75 36.96 41.8634 36.3216 41.2676 36.1267C40.6717 35.93 39.4071 35.2683 39.4071 34.2097C39.4071 33.151 40.2392 32.2944 41.2676 32.2944C41.9346 32.2944 42.7511 32.6485 43.1281 32.94" stroke="#1AA7EC" stroke-width="2" stroke-miterlimit="10" stroke-linecap="round" stroke-linejoin="round"/>
<path d="M41.2656 43.024V41.2357" stroke="#1AA7EC" stroke-width="2" stroke-miterlimit="10" stroke-linecap="round" stroke-linejoin="round"/>
<path d="M41.2656 32.2945V30.5062" stroke="#1AA7EC" stroke-width="2" stroke-miterlimit="10" stroke-linecap="round" stroke-linejoin="round"/>
<path d="M16.9453 26.0355H30.8426" stroke="#1E2F97" stroke-width="2" stroke-miterlimit="10" stroke-linecap="round" stroke-linejoin="round"/>
<path d="M16.9453 20.6708H37.7912" stroke="#1E2F97" stroke-width="2" stroke-miterlimit="10" stroke-linecap="round" stroke-linejoin="round"/>
<path d="M16.9453 15.306H37.7912" stroke="#1E2F97" stroke-width="2" stroke-miterlimit="10" stroke-linecap="round" stroke-linejoin="round"/>
<path d="M16.9453 9.94128H37.7912" stroke="#1E2F97" stroke-width="2" stroke-miterlimit="10" stroke-linecap="round" stroke-linejoin="round"/>
<path d="M43.0039 20.6708H43.1776" stroke="#1E2F97" stroke-width="2" stroke-miterlimit="10" stroke-linecap="round" stroke-linejoin="round"/>
<path d="M43.0039 15.306H43.1776" stroke="#1E2F97" stroke-width="2" stroke-miterlimit="10" stroke-linecap="round" stroke-linejoin="round"/>
<path d="M43.0039 9.94128H43.1776" stroke="#1E2F97" stroke-width="2" stroke-miterlimit="10" stroke-linecap="round" stroke-linejoin="round"/>
</svg>
