<?xml version="1.0" encoding="UTF-8" standalone="no"?><svg width="53" height="67" viewBox="0 0 53 67" fill="none" xmlns="http://www.w3.org/2000/svg">
<path d="M12.5625 57.5332L26.5142 47.9578L40.494 57.551" stroke="#1E2F97" stroke-width="2" stroke-miterlimit="10" stroke-linecap="round" stroke-linejoin="round"/>
<path d="M44.8779 5.69678V13.4817C44.8779 14.705 44.2297 16.4488 43.4367 17.3608L30.7426 31.2113C29.565 32.4947 29.565 34.5032 30.7426 35.791L43.4367 49.6415C44.2297 50.5512 44.8779 52.2972 44.8779 53.5206V61.3055" stroke="#1E2F97" stroke-width="2" stroke-miterlimit="10" stroke-linecap="round" stroke-linejoin="round"/>
<path d="M8.1501 5.69681H1.66797V1.24829H51.3643V5.69681H12.4715" stroke="#1E2F97" stroke-width="2" stroke-miterlimit="10" stroke-linecap="round" stroke-linejoin="round"/>
<path d="M9.22945 61.3033H51.3633V65.7519H1.63672L1.66697 61.3033H9.1992" stroke="#1E2F97" stroke-width="2" stroke-miterlimit="10" stroke-linecap="round" stroke-linejoin="round"/>
<path d="M8.11719 5.69678V13.4817C8.11719 14.705 8.7654 16.4488 9.55838 17.3608L22.2309 31.2135C23.4064 32.4969 23.4064 34.5032 22.2309 35.7888L9.55838 49.6415C8.7654 50.549 8.11719 52.295 8.11719 53.5184V61.3033" stroke="#1E2F97" stroke-width="2" stroke-miterlimit="10" stroke-linecap="round" stroke-linejoin="round"/>
<path d="M3.79688 60.1912V10.1454" stroke="#1E2F97" stroke-width="2" stroke-miterlimit="10" stroke-linecap="round" stroke-linejoin="round"/>
<path d="M49.1719 5.69678V56.8547" stroke="#1E2F97" stroke-width="2" stroke-miterlimit="10" stroke-linecap="round" stroke-linejoin="round"/>
<path d="M27.5664 43.5092V43.2867" stroke="#1E2F97" stroke-width="2" stroke-miterlimit="10" stroke-linecap="round" stroke-linejoin="round"/>
<path d="M25.4062 39.0607V38.8383" stroke="#1E2F97" stroke-width="2" stroke-miterlimit="10" stroke-linecap="round" stroke-linejoin="round"/>
<path d="M35.1607 21.2666H17.875" stroke="#1E2F97" stroke-width="2" stroke-miterlimit="10" stroke-linecap="round" stroke-linejoin="round"/>
</svg>
