<?xml version="1.0" encoding="UTF-8" standalone="no"?><svg width="51" height="50" viewBox="0 0 51 50" fill="none" xmlns="http://www.w3.org/2000/svg">
<g clip-path="url(#clip0_40_3204)">
<path d="M27.4531 44.6289C27.6474 44.6289 27.8337 44.5517 27.971 44.4144C28.1084 44.277 28.1855 44.0907 28.1855 43.8965V42.9199C28.1855 42.7257 28.1084 42.5394 27.971 42.402C27.8337 42.2647 27.6474 42.1875 27.4531 42.1875C27.2589 42.1875 27.0726 42.2647 26.9352 42.402C26.7979 42.5394 26.7207 42.7257 26.7207 42.9199V43.8965C26.7207 44.0907 26.7979 44.277 26.9352 44.4144C27.0726 44.5517 27.2589 44.6289 27.4531 44.6289Z" fill="#1E2F97"/>
<path d="M49.7676 48.5352H48.1562C47.8018 45.9248 45.583 43.874 42.8359 43.6709V34.2959L45.624 36.0225C45.7351 36.091 45.8624 36.1287 45.9929 36.1316C46.1233 36.1345 46.2522 36.1026 46.3662 36.0391C46.4802 35.9757 46.5752 35.8829 46.6413 35.7705C46.7074 35.658 46.7423 35.5299 46.7422 35.3994V30.5166C46.7423 30.3918 46.7105 30.2691 46.6498 30.16C46.5891 30.051 46.5016 29.9593 46.3955 29.8936L36.459 23.7412C38.6865 21.1395 39.9094 17.8264 39.9062 14.4014C39.9043 6.46191 33.4424 0 25.5 0C17.5576 0 11.0957 6.46191 11.0957 14.4043C11.0926 17.8293 12.3154 21.1424 14.543 23.7441L4.60645 29.8965C4.50037 29.9622 4.41284 30.0539 4.35217 30.163C4.2915 30.272 4.25969 30.3947 4.25977 30.5195V35.4023C4.26028 35.5963 4.33768 35.782 4.47498 35.919C4.61228 36.0559 4.79827 36.1328 4.99219 36.1328C5.13004 36.1334 5.26533 36.0956 5.38281 36.0234L8.16602 34.2969V43.6719C5.41895 43.874 3.2002 45.9248 2.84375 48.5352H1.23242C1.03817 48.5352 0.851877 48.6123 0.714521 48.7497C0.577166 48.887 0.5 49.0733 0.5 49.2676C0.5 49.4618 0.577166 49.6481 0.714521 49.7855C0.851877 49.9228 1.03817 50 1.23242 50H49.7676C49.9618 50 50.1481 49.9228 50.2855 49.7855C50.4228 49.6481 50.5 49.4618 50.5 49.2676C50.5 49.0733 50.4228 48.887 50.2855 48.7497C50.1481 48.6123 49.9618 48.5352 49.7676 48.5352ZM46.6709 48.5352H34.6436C34.9785 47.4434 36.041 46.6436 37.2979 46.6436C37.625 46.643 37.9499 46.6978 38.2588 46.8057C38.3965 46.854 38.5454 46.8602 38.6867 46.8235C38.8279 46.7868 38.955 46.7089 39.0518 46.5996C39.4706 46.1302 39.9845 45.7553 40.5593 45.4997C41.1341 45.2441 41.7567 45.1137 42.3857 45.1172C44.5244 45.1172 46.3066 46.5947 46.6709 48.5352ZM45.2754 34.082L33.166 26.5879C33.975 26.0777 34.7316 25.489 35.4248 24.8301L45.2754 30.9258V34.082ZM25.5 1.46484C32.6348 1.46484 38.4395 7.26953 38.4395 14.4043C38.4395 21.5391 32.6348 27.3438 25.5 27.3438C18.3652 27.3438 12.5605 21.5391 12.5605 14.4043C12.5605 7.26953 18.3652 1.46484 25.5 1.46484ZM5.72461 30.9258L15.5713 24.8301C16.2645 25.489 17.0211 26.0777 17.8301 26.5879L5.72461 34.082V30.9258ZM19.2988 27.4043C21.2353 28.3291 23.3541 28.8091 25.5 28.8091C27.6459 28.8091 29.7647 28.3291 31.7012 27.4043L41.3691 33.3906V43.7422C40.2076 43.9374 39.1315 44.477 38.2803 45.291C37.958 45.2175 37.6284 45.1805 37.2979 45.1807C35.2246 45.1807 33.4961 46.6309 33.1377 48.5371H30.1387V37.5488C30.1387 37.3546 30.0615 37.1683 29.9242 37.0309C29.7868 36.8936 29.6005 36.8164 29.4062 36.8164H21.5938C21.3995 36.8164 21.2132 36.8936 21.0758 37.0309C20.9385 37.1683 20.8613 37.3546 20.8613 37.5488V48.5352H17.8623C17.5039 46.6289 15.7754 45.1787 13.7021 45.1787C13.3716 45.1785 13.042 45.2155 12.7197 45.2891C11.8685 44.475 10.7924 43.9354 9.63086 43.7402V33.3887L19.2988 27.4043ZM28.6738 48.5352H22.3262V38.2812H28.6738V48.5352ZM8.61426 45.1172C9.24332 45.1137 9.86593 45.2441 10.4407 45.4997C11.0156 45.7553 11.5294 46.1302 11.9482 46.5996C12.045 46.7089 12.1721 46.7868 12.3133 46.8235C12.4546 46.8602 12.6035 46.854 12.7412 46.8057C13.0501 46.6978 13.375 46.643 13.7021 46.6436C14.959 46.6436 16.0215 47.4434 16.3564 48.5352H4.3291C4.69336 46.5947 6.47559 45.1172 8.61426 45.1172Z" fill="#1E2F97"/>
<path d="M25.5 24.9023C27.5763 24.9023 29.606 24.2866 31.3324 23.1331C33.0588 21.9796 34.4044 20.34 35.1989 18.4217C35.9935 16.5035 36.2014 14.3927 35.7963 12.3562C35.3913 10.3198 34.3914 8.44924 32.9232 6.98106C31.4551 5.51288 29.5845 4.51304 27.5481 4.10797C25.5116 3.7029 23.4008 3.9108 21.4826 4.70537C19.5643 5.49994 17.9247 6.8455 16.7712 8.5719C15.6177 10.2983 15.002 12.328 15.002 14.4043C15.0051 17.1876 16.1121 19.856 18.0802 21.8241C20.0483 23.7922 22.7167 24.8992 25.5 24.9023ZM25.5 5.3711C27.2866 5.3711 29.0331 5.90089 30.5186 6.89347C32.0041 7.88605 33.1619 9.29684 33.8456 10.9474C34.5293 12.598 34.7082 14.4143 34.3596 16.1666C34.0111 17.9189 33.1508 19.5284 31.8874 20.7917C30.6241 22.0551 29.0146 22.9154 27.2623 23.2639C25.51 23.6125 23.6937 23.4336 22.0431 22.7499C20.3925 22.0662 18.9817 20.9084 17.9892 19.4229C16.9966 17.9374 16.4668 16.1909 16.4668 14.4043C16.4696 12.0094 17.4223 9.71344 19.1157 8.02C20.8091 6.32656 23.1051 5.37394 25.5 5.3711Z" fill="#1E2F97"/>
<path d="M24.463 15.1367H26.5372C26.8392 15.1455 27.1259 15.2716 27.3364 15.4883C27.5469 15.705 27.6646 15.9952 27.6646 16.2974C27.6646 16.5995 27.5469 16.8897 27.3364 17.1064C27.1259 17.3231 26.8392 17.4492 26.5372 17.458H23.1563C22.9621 17.458 22.7758 17.5352 22.6384 17.6725C22.5011 17.8099 22.4239 17.9962 22.4239 18.1904C22.4239 18.3847 22.5011 18.571 22.6384 18.7083C22.7758 18.8457 22.9621 18.9229 23.1563 18.9229H23.5469V20.083C23.5469 20.2773 23.6241 20.4636 23.7615 20.6009C23.8988 20.7383 24.0851 20.8154 24.2794 20.8154C24.4736 20.8154 24.6599 20.7383 24.7973 20.6009C24.9346 20.4636 25.0118 20.2773 25.0118 20.083V18.9229H25.9884V20.083C25.9884 20.2773 26.0655 20.4636 26.2029 20.6009C26.3402 20.7383 26.5265 20.8154 26.7208 20.8154C26.915 20.8154 27.1013 20.7383 27.2387 20.6009C27.376 20.4636 27.4532 20.2773 27.4532 20.083V18.7578C28.0295 18.5425 28.512 18.1317 28.8164 17.5971C29.1208 17.0624 29.2278 16.4379 29.1187 15.8324C29.0097 15.2269 28.6915 14.6789 28.2197 14.2841C27.7479 13.8892 27.1524 13.6725 26.5372 13.6719H24.463C24.161 13.6631 23.8743 13.537 23.6638 13.3203C23.4533 13.1036 23.3355 12.8134 23.3355 12.5112C23.3355 12.2091 23.4533 11.9189 23.6638 11.7022C23.8743 11.4855 24.161 11.3593 24.463 11.3506H27.8438C28.0381 11.3506 28.2244 11.2734 28.3617 11.1361C28.4991 10.9987 28.5762 10.8124 28.5762 10.6182C28.5762 10.4239 28.4991 10.2376 28.3617 10.1003C28.2244 9.96291 28.0381 9.88574 27.8438 9.88574H27.4532V8.72559C27.4532 8.53134 27.376 8.34504 27.2387 8.20769C27.1013 8.07033 26.915 7.99316 26.7208 7.99316C26.5265 7.99316 26.3402 8.07033 26.2029 8.20769C26.0655 8.34504 25.9884 8.53134 25.9884 8.72559V9.88574H25.0118V8.72559C25.0118 8.53134 24.9346 8.34504 24.7973 8.20769C24.6599 8.07033 24.4736 7.99316 24.2794 7.99316C24.0851 7.99316 23.8988 8.07033 23.7615 8.20769C23.6241 8.34504 23.5469 8.53134 23.5469 8.72559V10.0508C22.9706 10.2661 22.4882 10.6769 22.1838 11.2115C21.8794 11.7462 21.7724 12.3707 21.8814 12.9762C21.9905 13.5817 22.3087 14.1297 22.7805 14.5245C23.2523 14.9194 23.8477 15.136 24.463 15.1367Z" fill="#1AA7EC"/>
</g>
<defs>
<clipPath id="clip0_40_3204">
<rect width="50" height="50" fill="white" transform="translate(0.5)"/>
</clipPath>
</defs>
</svg>
